<svg xmlns="http://www.w3.org/2000/svg" width="64" height="64" fill="none"><path fill="#3B3B43" d="M54.232 27.363c-.238-1.926-.159-4.734-2.462-5.475-1.986-.592-4.369-.296-6.354-.296-10.882 0-21.763.37-32.565 1.185-1.986.148-.715 11.995-1.033 16.143-.159 2.297-.397 4.594-.556 6.89-.159 1.704-.873 4.15.239 5.705 1.112 1.63 4.05 1.407 5.877 1.407 9.035.282 20.288-.256 30.306-.256 1.44-.353 3.878-.582 5.154-1.151 1.748-.741 1.394-2.593 1.632-4.297.318-2.149.398-4.371.477-6.52.08-4.445-.159-8.89-.715-13.335Z"/><path stroke="#C9C9CD" stroke-linecap="round" stroke-linejoin="round" stroke-width="2.5" d="M9.92 19.628c1.884 0 39.653-.575 43.655-1.037M18.463 28.395c5.473-.093 23.064 0 26.57 0M24.53 33.006c3.095-.034 13.681.239 15.03 0"/><path stroke="#C9C9CD" stroke-width="2.5" d="M23.202 39.8c-1.58 0-1.888 1.386-1.844 2.08.132.429 0 1.245 0 2.575 0 1.064 1.098 1.288 1.844 1.288.352-.066 3.474.079 4.264 0 .988-.1 6.206 0 7.392 0h5.741c2.149 0 2.149-1.126 2.149-1.62v-2.495c0-2.149-3.218-1.828-4.272-1.828H23.202Z"/><path stroke="#C9C9CD" stroke-linecap="round" stroke-linejoin="round" stroke-width="2.5" d="M13.652 10.588c-4.078-.15-4.575 1.143-4.575 2.305-.174.642 0 2.12 0 3.164V48.31c0 3.58 3.529 4.31 5.293 4.226h35.677c2.876 0 3.856-2.113 3.856-3.107v-6.836c0-1.243-.392-15.66-.392-18.333 0-2.672.392-6.898 0-11-.393-4.101-3.529-3.169-5.75-3.169-2.222 0-14.31.497-19.015.497s-9.998.187-15.094 0Z"/><path stroke="#C9C9CD" stroke-linecap="round" stroke-linejoin="round" stroke-miterlimit="10" stroke-width="2.5" d="M13.473 15.37h.22M17.436 15.37h.221M21.23 15.37h.22"/></svg>