<svg xmlns="http://www.w3.org/2000/svg" width="64" height="64" fill="none"><path fill="#3B3B43" d="M39.052 34.89c-2.133 2.03-3.072 7.088-2.912 9.369-.31-.021-1.08-.006-2.5 0-1.142.005-2.236.013-2.627.013h-3.49c0-3.268-.393-6.4-2.16-8.92-1.672-2.383-3.542-4.152-4.14-8.535-.596-4.383 4.566-9.265 11.103-9.265 6.288 0 9.562 2.314 10.864 5.92 1.373 3.802-1.472 8.881-4.138 11.419Z"/><path stroke="#C9C9CD" stroke-linecap="round" stroke-linejoin="round" stroke-miterlimit="10" stroke-width="2.5" d="M37.032 45.465c.466.033 1.822-.027 1.859.636.111 1.962.2 4.918-.333 5.697-.149.218-1.88.366-2.688.466m1.162-6.799c-.166-2.407 1.504-7.645 3.734-9.788C43.555 33 46.17 26.313 44.733 22.3c-1.362-3.807-6.478-6.608-13.054-6.608-6.837 0-13.833 5.456-13.208 10.082.624 4.626 3.715 7.803 5.463 10.32a16.437 16.437 0 0 1 2.92 9.371m10.178 0c-.323-.022-3.373-.033-4.858-.027m-1.145.014c.409 0-.05-.008 1.145-.014m-1.145.014c-.203 0 .387 0 0 0Zm0 0c-1.357 0-3.982.013-4.176.013m4.176-.013c.5-6.574-3.788-17.649-3.622-17.649 1.83-1.266 3.37 1.498 4.272 3.087 1.064.987 3.675-4.879 5.353-3.087.52.734-4.539 13.338-4.858 17.635m-5.32.027c-.25 0-2.342-.013-2.342.902v3.808c0 .933.03 2.191.986 2.191.195 0 1.887.017 2.616.035m0 0c-.235.516-.389 4.467.876 4.532 1.582.081 5.619 0 5.827 0 .208 0 1.167-3.13 1.053-4.669m-7.756.137c2.056.053 5.685.12 7.756-.137M46.963 36.662l2.516 1.176M50.41 27.37h2.434M48.546 16.71l1.895-1.22M40.667 11.371l.865-2.052M29.653 10.346 29.173 8M19.133 14.883l-1.585-1.946M13.712 25.189H11M17.932 36.168l-2.96 1.334"/></svg>