<svg xmlns="http://www.w3.org/2000/svg" width="64" height="64" fill="none"><path stroke="#C9C9CD" stroke-linecap="round" stroke-linejoin="round" stroke-width="2.5" d="M28.68 22.849c-5.066-.075-17.035.27-18.724.245-2.03.325-2.685.437-2.703 2.344.086 5.88-.269 20.722-.206 21.926.126 2.386.961 3.352 2.65 3.377 1.689.025 14.86.195 18.238.245 5.517-.082 16.646-.245 17.022-.245.469 0 2.159-.029 2.159-3.919 0-3.112-.105-5.355 0-8.463"/><path stroke="#C9C9CD" stroke-linecap="round" stroke-linejoin="round" stroke-width="2.5" d="M8.085 24.811c2.533 2.48 13.504 13.382 19.474 12.496 2.684-.399 4.7-1.41 8.228-4.031M8.282 49.707c1.03-.765 8.528-10.141 11.969-13.831M33.197 36.855l12.336 11.84"/><path fill="#3B3B43" d="M41.404 13.34c.884-1.153 5.592-1.074 6.794-.57 1.202.502.228 6.749.58 7.663.354.913 6.77-.378 7.325.188.555.567 1.462 6.217.244 6.631-1.218.414-5.799.037-6.414 1.39-.615 1.352.532 5.604-.649 6.433-1.18.828-5.411.482-6.571 0-1.16-.483.083-6.236-1.309-6.611s-6.84.71-7.36-.392c-.521-1.103-.545-5.623-.245-6.63.3-1.01 7.105.447 7.09-1.01-.015-1.455-.37-5.94.515-7.093Z"/><path stroke="#C9C9CD" stroke-width="2.5" d="M47.032 12.145c-.442-.185-1.048-.283-1.606-.337a14.493 14.493 0 0 0-1.957-.048c-.669.029-1.37.106-1.984.26-.536.135-1.309.397-1.777 1.008-.4.52-.555 1.23-.637 1.771-.09.602-.124 1.281-.133 1.928-.012.844.023 1.798.047 2.472v.02c-.42.035-.983.028-1.64.007l-.375-.013c-.613-.022-1.271-.045-1.805-.023a4.593 4.593 0 0 0-1.01.135c-.22.061-.965.29-1.201 1.083-.112.375-.162.917-.19 1.413-.03.54-.037 1.17-.022 1.798.015.626.053 1.27.12 1.832.06.51.161 1.116.37 1.557.256.544.736.794 1.037.909.323.122.673.179.982.21.625.06 1.374.037 2.066 0 .34-.02.652-.04.95-.06.365-.024.709-.047 1.055-.062.269-.012.498-.017.687-.014.064.402.076.96.08 1.639v.189c.003.587.005 1.253.067 1.804.034.305.093.66.22.985.12.304.385.806.97 1.05.397.165.936.279 1.457.358.548.082 1.178.14 1.806.16.625.02 1.279.004 1.867-.074.538-.07 1.212-.214 1.727-.575.724-.508.9-1.366.964-1.868.073-.58.055-1.239.029-1.813a72.89 72.89 0 0 0-.028-.54c-.021-.396-.04-.753-.042-1.09a4.654 4.654 0 0 1 .032-.617c.043-.018.103-.04.185-.066.336-.1.809-.172 1.382-.225.372-.034.73-.056 1.091-.079.202-.013.404-.025.61-.04.484-.035 1.1-.086 1.543-.237.588-.2.894-.664 1.043-.985.154-.33.23-.693.27-1.011.085-.646.062-1.407-.003-2.11a15.619 15.619 0 0 0-.323-2.024 7.498 7.498 0 0 0-.234-.816 3.296 3.296 0 0 0-.158-.372 1.808 1.808 0 0 0-.315-.45 1.568 1.568 0 0 0-.7-.402 2.65 2.65 0 0 0-.476-.083c-.28-.025-.6-.022-.91-.01-.493.02-1.09.07-1.67.117l-.455.038c-.695.055-1.326.098-1.807.093.001-.093.004-.194.007-.303.009-.27.022-.567.037-.889l.005-.112c.016-.361.033-.748.044-1.133.02-.756.023-1.575-.062-2.253a4.202 4.202 0 0 0-.247-1.041c-.123-.306-.394-.815-.983-1.061Zm.658 6.751Z"/></svg>