<svg xmlns="http://www.w3.org/2000/svg" width="459" height="37" fill="none"><path fill="#fff" d="M217.128 25V10.2h6.153c3.404 0 5.497 2.009 5.497 4.969 0 2.96-2.178 5.053-5.497 5.053h-3.193V25h-2.96Zm2.96-7.21h3.002c1.882 0 2.728-1.163 2.728-2.621 0-1.46-.846-2.538-2.728-2.538h-3.002v5.16Zm15.189 7.464c-3.108 0-5.116-1.819-5.116-4.905v-1.502c0-2.98 1.776-5.095 5.074-5.095 3.256 0 4.905 2.178 4.905 4.82v1.925h-7.188v.274c0 1.29.655 2.41 2.325 2.41 1.227 0 1.988-.634 2.263-1.395h2.516c-.381 2.009-2.347 3.468-4.779 3.468Zm-2.325-6.893v.106h4.545v-.275c0-1.374-.719-2.41-2.262-2.41-1.649 0-2.283 1.1-2.283 2.58ZM242.478 25V14.006h2.727v2.135c.36-1.649 1.65-2.22 3.299-2.22h.338v2.854h-.592c-1.882 0-2.897.93-2.897 3.15V25h-2.875Zm8.955 0v-8.669h-1.395v-2.325h1.395V12.99c0-2.41 1.142-3.425 3.404-3.425h1.903v2.283h-1.247c-.825 0-1.184.254-1.184 1.12v1.037h2.22v2.325h-2.22V25h-2.876Zm11.367.254c-3.108 0-5.116-1.819-5.116-4.905v-1.502c0-2.98 1.776-5.095 5.074-5.095 3.256 0 4.905 2.178 4.905 4.82v1.925h-7.189v.274c0 1.29.656 2.41 2.326 2.41 1.226 0 1.988-.634 2.262-1.395h2.516c-.38 2.009-2.346 3.468-4.778 3.468Zm-2.326-6.893v.106h4.546v-.275c0-1.374-.719-2.41-2.262-2.41-1.649 0-2.284 1.1-2.284 2.58Zm14.242 6.893c-3.32 0-5.201-2.093-5.201-4.969v-1.564c0-2.876 1.881-4.969 5.201-4.969 2.939 0 4.926 1.84 5.011 4.355h-2.622c-.127-1.078-.804-2.03-2.326-2.03-1.628 0-2.389 1.058-2.389 2.538v1.776c0 1.48.761 2.537 2.389 2.537 1.522 0 2.199-.951 2.326-2.03h2.622c-.085 2.516-2.072 4.356-5.011 4.356ZM285.844 25c-2.114 0-3.108-1.184-3.108-3.13v-5.539h-1.564v-2.325h1.564v-3.003h2.897v3.003h2.347v2.325h-2.347v5.328c0 .72.275 1.015 1.036 1.015h1.163V25h-1.988Zm12.76 0c-2.114 0-3.108-1.184-3.108-3.13v-5.539h-1.564v-2.325h1.564v-3.003h2.897v3.003h2.347v2.325h-2.347v5.328c0 .72.275 1.015 1.036 1.015h1.163V25h-1.988Zm4.351 0V14.006h2.876V25h-2.876Zm-.232-13.87c0-.951.698-1.67 1.67-1.67.973 0 1.67.719 1.67 1.67 0 .952-.697 1.67-1.67 1.67-.972 0-1.67-.718-1.67-1.67Zm10.727 14.124c-3.319 0-5.201-2.093-5.201-4.969v-1.564c0-2.876 1.882-4.969 5.201-4.969 2.939 0 4.926 1.84 5.011 4.355h-2.622c-.127-1.078-.803-2.03-2.326-2.03-1.628 0-2.389 1.058-2.389 2.538v1.776c0 1.48.761 2.537 2.389 2.537 1.523 0 2.199-.951 2.326-2.03h2.622c-.085 2.516-2.072 4.356-5.011 4.356Zm7.364-.254V9.566h2.875v9.556l3.489-5.116h3.277l-3.785 5.37L330.582 25h-3.277l-3.616-5.37V25h-2.875Zm15.718.254c-3.108 0-5.117-1.819-5.117-4.905v-1.502c0-2.98 1.776-5.095 5.075-5.095 3.256 0 4.905 2.178 4.905 4.82v1.925h-7.189v.274c0 1.29.656 2.41 2.326 2.41 1.226 0 1.987-.634 2.262-1.395h2.516c-.38 2.009-2.347 3.468-4.778 3.468Zm-2.326-6.893v.106h4.546v-.275c0-1.374-.719-2.41-2.262-2.41-1.65 0-2.284 1.1-2.284 2.58ZM347.497 25c-2.114 0-3.108-1.184-3.108-3.13v-5.539h-1.564v-2.325h1.564v-3.003h2.897v3.003h2.347v2.325h-2.347v5.328c0 .72.275 1.015 1.036 1.015h1.163V25h-1.988Zm4.351 0V14.006h2.876V25h-2.876Zm-.232-13.87c0-.951.697-1.67 1.67-1.67s1.67.719 1.67 1.67c0 .952-.697 1.67-1.67 1.67s-1.67-.718-1.67-1.67ZM357.628 25V14.006h2.749v1.31c.549-1.014 1.67-1.564 3.234-1.564 2.39 0 3.891 1.565 3.891 4.207V25h-2.876v-6.575c0-1.269-.613-2.178-2.008-2.178-1.29 0-2.115.761-2.115 2.241V25h-2.875Zm17.394 3.933c-2.579 0-4.715-1.206-5.159-3.278h2.791c.381.762 1.248 1.1 2.368 1.1 1.459 0 2.389-.804 2.389-2.03v-1.734c-.465.762-1.733 1.502-3.15 1.502-2.96 0-4.524-2.157-4.524-4.567v-1.607c0-2.453 1.543-4.567 4.545-4.567 1.692 0 2.876.846 3.256 1.586v-1.332h2.749v10.761c0 2.347-2.199 4.166-5.265 4.166Zm-.084-6.745c1.353 0 2.473-.867 2.473-2.41v-1.269c0-1.48-1.014-2.452-2.389-2.452-1.607 0-2.431.951-2.431 2.452v1.269c0 1.395.782 2.41 2.347 2.41Zm17.106 3.066c-2.791 0-4.736-1.163-4.736-3.51v-.19h2.537v.148c0 .951.867 1.522 2.22 1.522 1.205 0 2.093-.486 2.093-1.332 0-.529-.275-.846-.909-.994l-3.256-.74c-1.649-.38-2.516-1.226-2.516-2.896 0-2.263 1.84-3.51 4.44-3.51 2.643 0 4.356 1.332 4.356 3.51v.169h-2.516v-.19c0-.846-.529-1.438-1.798-1.438-1.162 0-1.797.423-1.797 1.205 0 .55.275.803.846.93l3.341.825c1.628.402 2.452 1.268 2.452 2.812 0 2.135-2.03 3.679-4.757 3.679Zm11.069 3.425h-2.833l1.099-3.721-3.805-10.952h2.875l2.368 7.886 2.241-7.886h2.854l-4.799 14.673Zm10.652-3.425c-2.791 0-4.736-1.163-4.736-3.51v-.19h2.537v.148c0 .951.867 1.522 2.22 1.522 1.205 0 2.093-.486 2.093-1.332 0-.529-.275-.846-.909-.994l-3.256-.74c-1.649-.38-2.516-1.226-2.516-2.896 0-2.263 1.84-3.51 4.44-3.51 2.643 0 4.356 1.332 4.356 3.51v.169h-2.516v-.19c0-.846-.529-1.438-1.798-1.438-1.162 0-1.797.423-1.797 1.205 0 .55.275.803.846.93l3.341.825c1.628.402 2.452 1.268 2.452 2.812 0 2.135-2.03 3.679-4.757 3.679ZM424.347 25c-2.115 0-3.108-1.184-3.108-3.13v-5.539h-1.565v-2.325h1.565v-3.003h2.896v3.003h2.347v2.325h-2.347v5.328c0 .72.275 1.015 1.036 1.015h1.163V25h-1.987Zm8.917.254c-3.108 0-5.116-1.819-5.116-4.905v-1.502c0-2.98 1.776-5.095 5.074-5.095 3.256 0 4.905 2.178 4.905 4.82v1.925h-7.188v.274c0 1.29.655 2.41 2.325 2.41 1.227 0 1.988-.634 2.263-1.395h2.516c-.381 2.009-2.347 3.468-4.779 3.468Zm-2.325-6.893v.106h4.545v-.275c0-1.374-.718-2.41-2.262-2.41-1.649 0-2.283 1.1-2.283 2.58ZM440.465 25V14.006h2.749v1.31c.549-1.014 1.607-1.564 3.171-1.564 1.417 0 2.516.57 3.172 1.565.803-1.036 2.029-1.565 3.636-1.565 2.305 0 3.933 1.565 3.933 4.207V25h-2.876v-6.575c0-1.269-.571-2.178-1.966-2.178-1.269 0-2.051.761-2.051 2.241V25h-2.875v-6.575c0-1.269-.571-2.178-1.967-2.178-1.289 0-2.05.761-2.05 2.241V25h-2.876Z"/><path fill="#38C776" d="M8.7 33.901c3.308.272 6.615.408 9.922.408 3.308 0 6.615-.136 9.922-.362 4.26-.363 7.612-4.078 7.929-8.79l.027-.377c.163-2.279.245-3.417.245-5.782v-4.572l-5.89 5.12c-.041 2.17.05 2.74-.092 4.595l-.048.642c-.136 1.767-1.224 3.216-2.538 3.307-6.342.544-12.68.51-19.024-.033-1.313-.09-2.4-1.54-2.537-3.308l-.04-.532c-.154-2.03-.231-3.045-.231-5.219v-.048c.045-2.34.091-4.726.271-7.11.136-1.722 1.178-3.126 2.447-3.308H27.85l-8.95 7.862-3.852-3.54-4.398 3.861 8.196 7.534L36.744 8.532v-5.89H8.7C4.442 3.006 1.09 6.72.772 11.433A106.488 106.488 0 0 0 .5 18.998c0 2.383.083 3.52.249 5.795l.023.319c.317 4.712 3.67 8.427 7.928 8.79Z"/><path fill="#2FC774" d="M8.7 33.949c3.308.272 6.615.408 9.922.408 3.308 0 6.615-.136 9.922-.363 4.26-.362 7.612-4.077 7.929-8.79l.027-.377c.163-2.278.245-3.416.245-5.781v-4.573l-5.89 5.12c-.041 2.17.05 2.74-.092 4.596l-.048.642c-.136 1.766-1.224 3.216-2.538 3.307-6.342.543-12.68.51-19.024-.034-1.313-.09-2.4-1.54-2.537-3.307l-.04-.532c-.154-2.03-.231-3.093-.231-5.267v-.048c.045-2.34.091-4.726.271-7.11.136-1.722 1.178-3.126 2.447-3.308H27.85l-8.95 7.862-3.852-3.54-4.398 3.861 8.196 7.534L36.744 8.532v-5.89H8.7C4.442 3.006 1.09 6.72.772 11.433A106.488 106.488 0 0 0 .5 18.998c0 2.383.083 3.569.249 5.843l.023.319c.317 4.711 3.67 8.427 7.928 8.789Z"/><path fill="#fff" d="M45.763 28.996h4.313v-8.903h8.842v8.903h4.313V7.431h-4.313v8.842h-8.842V7.43h-4.313v21.565ZM73.046 29.366c3.543 0 6.408-2.126 6.962-5.052h-3.666c-.4 1.109-1.51 2.033-3.296 2.033-2.434 0-3.39-1.633-3.39-3.512v-.4h10.476V19.63c0-3.851-2.403-7.024-7.148-7.024-4.806 0-7.394 3.08-7.394 7.424v2.188c0 4.498 2.927 7.147 7.456 7.147Zm-3.39-10.043c0-2.157.925-3.759 3.328-3.759 2.25 0 3.297 1.51 3.297 3.512v.4h-6.624v-.153ZM82.271 28.996h4.19V6.506h-4.19v22.49ZM98.084 12.607c-2.311 0-3.944 1.047-4.745 2.28v-1.91h-4.005v21.38h4.19v-7.086c.832 1.232 2.465 2.095 4.59 2.095 4.314 0 6.717-3.204 6.717-7.055v-2.65c0-3.789-2.342-7.054-6.747-7.054Zm-1.017 3.389c2.434 0 3.574 1.725 3.574 3.85v2.28c0 2.25-1.233 3.851-3.605 3.851-1.91 0-3.512-1.355-3.512-3.79v-2.34c0-2.25 1.417-3.852 3.543-3.852ZM107.207 7.43v21.566h8.75c5.791 0 8.841-3.573 8.841-8.472v-4.621c0-4.898-3.05-8.472-8.841-8.472h-8.75Zm13.309 13.125c0 3.143-1.818 4.93-5.299 4.93h-3.728V10.942h3.728c3.481 0 5.299 1.787 5.299 4.93v4.682ZM133.949 29.366c3.543 0 6.408-2.126 6.962-5.052h-3.666c-.4 1.109-1.509 2.033-3.296 2.033-2.434 0-3.389-1.633-3.389-3.512v-.4h10.475V19.63c0-3.851-2.404-7.024-7.148-7.024-4.806 0-7.394 3.08-7.394 7.424v2.188c0 4.498 2.927 7.147 7.456 7.147Zm-3.389-10.043c0-2.157.924-3.759 3.327-3.759 2.249 0 3.296 1.51 3.296 3.512v.4h-6.623v-.153ZM149.305 29.366c3.974 0 6.932-2.249 6.932-5.36 0-2.25-1.202-3.513-3.574-4.098l-4.868-1.201c-.831-.185-1.232-.555-1.232-1.356 0-1.14.924-1.756 2.619-1.756 1.848 0 2.618.863 2.618 2.095v.277h3.667v-.246c0-3.174-2.496-5.114-6.347-5.114-3.789 0-6.47 1.817-6.47 5.114 0 2.433 1.264 3.666 3.667 4.22l4.744 1.079c.924.215 1.325.678 1.325 1.448 0 1.232-1.294 1.94-3.05 1.94-1.972 0-3.235-.831-3.235-2.218v-.215h-3.697v.277c0 3.42 2.834 5.114 6.901 5.114ZM158.089 28.996h4.19v-7.825l5.268 7.825h4.776l-5.7-8.194 5.515-7.826h-4.775l-5.084 7.456V6.507h-4.19v22.49Z"/><path fill="#FCFCFC" d="M193.43 0h1.321v37h-1.321z"/></svg>